<svg width="196" height="48" viewBox="0 0 196 48" fill="none" xmlns="http://www.w3.org/2000/svg">
  <path d="M70.604 20.5C70.6552 19.9375 70.5188 19.4972 70.195 19.179C69.8711 18.8551 69.3256 18.6932 68.5586 18.6932C68.07 18.6932 67.6609 18.75 67.3313 18.8636C67.0075 18.9773 66.7546 19.1335 66.5728 19.3324C66.3967 19.5312 66.2859 19.7614 66.2404 20.0227C66.1893 20.2273 66.1921 20.4148 66.2489 20.5852C66.3114 20.75 66.4279 20.9006 66.5984 21.0369C66.7745 21.1733 67.0046 21.2955 67.2887 21.4034C67.5785 21.5114 67.9222 21.608 68.32 21.6932L69.6836 22C70.6154 22.2045 71.3967 22.4744 72.0273 22.8097C72.6637 23.1392 73.1637 23.5312 73.5273 23.9858C73.891 24.4403 74.1296 24.9489 74.2433 25.5114C74.3626 26.0739 74.3654 26.6875 74.2518 27.3523C74.0586 28.5 73.6126 29.4716 72.9137 30.267C72.2148 31.0625 71.3029 31.6676 70.1779 32.0824C69.0529 32.4972 67.7518 32.7045 66.2745 32.7045C64.7631 32.7045 63.479 32.4801 62.4222 32.0312C61.3711 31.5767 60.6097 30.8835 60.1381 29.9517C59.6722 29.0142 59.5586 27.8182 59.7972 26.3636H64.2972C64.229 26.8977 64.2859 27.3466 64.4677 27.7102C64.6495 28.0739 64.9421 28.3494 65.3455 28.5369C65.7489 28.7244 66.2518 28.8182 66.854 28.8182C67.3654 28.8182 67.8029 28.7557 68.1665 28.6307C68.5302 28.5057 68.8171 28.3324 69.0273 28.1108C69.2376 27.8892 69.3654 27.6364 69.4109 27.3523C69.4563 27.0909 69.4109 26.858 69.2745 26.6534C69.1381 26.4489 68.891 26.2642 68.533 26.0994C68.1751 25.9347 67.6836 25.7841 67.0586 25.6477L65.3881 25.2727C63.9052 24.9318 62.7859 24.3693 62.0302 23.5852C61.2745 22.8011 61.0075 21.7273 61.229 20.3636C61.4109 19.25 61.8683 18.2784 62.6012 17.4489C63.3398 16.6136 64.2773 15.9659 65.4137 15.5057C66.5558 15.0398 67.82 14.8068 69.2063 14.8068C70.6154 14.8068 71.7944 15.0426 72.7433 15.5142C73.6978 15.9858 74.3825 16.6477 74.7972 17.5C75.2177 18.3523 75.3313 19.3523 75.1381 20.5H70.604ZM88.4293 15.0455H93.168L91.31 26.2273C91.0941 27.5568 90.5884 28.7074 89.793 29.679C89.0032 30.6449 87.9975 31.392 86.7759 31.9205C85.5543 32.4432 84.1964 32.7045 82.7021 32.7045C81.1964 32.7045 79.9237 32.4432 78.8839 31.9205C77.8441 31.392 77.0884 30.6449 76.6168 29.679C76.1509 28.7074 76.0259 27.5568 76.2418 26.2273L78.0998 15.0455H82.8384L81.0487 25.8182C80.9634 26.358 81.006 26.8381 81.1765 27.2585C81.3469 27.679 81.6225 28.0114 82.0032 28.2557C82.3839 28.4943 82.8441 28.6136 83.3839 28.6136C83.9293 28.6136 84.4322 28.4943 84.8924 28.2557C85.3583 28.0114 85.7447 27.679 86.0515 27.2585C86.3583 26.8381 86.5543 26.358 86.6396 25.8182L88.4293 15.0455ZM92.5224 32.5L95.4201 15.0455H102.954C104.25 15.0455 105.341 15.3011 106.227 15.8125C107.113 16.3239 107.75 17.0426 108.136 17.9688C108.522 18.8949 108.613 19.9773 108.409 21.2159C108.204 22.4773 107.75 23.5653 107.045 24.4801C106.346 25.3892 105.454 26.0909 104.369 26.5852C103.289 27.0739 102.079 27.3182 100.738 27.3182H96.2383L96.8519 23.6364H100.397C100.966 23.6364 101.466 23.5398 101.897 23.3466C102.329 23.1477 102.679 22.8693 102.946 22.5114C103.213 22.1477 103.386 21.7159 103.466 21.2159C103.545 20.7159 103.508 20.2898 103.355 19.9375C103.207 19.5795 102.951 19.3068 102.588 19.1193C102.23 18.9261 101.772 18.8295 101.216 18.8295H99.5451L97.261 32.5H92.5224ZM108.272 32.5L111.17 15.0455H123.75L123.102 18.8636H115.261L114.784 21.8636H121.977L121.329 25.6818H114.136L113.659 28.6818H121.466L120.818 32.5H108.272ZM123.202 32.5L126.1 15.0455H133.634C134.929 15.0455 136.023 15.2812 136.915 15.7528C137.807 16.2244 138.449 16.9034 138.841 17.7898C139.233 18.6761 139.327 19.7386 139.123 20.9773C138.918 22.2273 138.466 23.2812 137.767 24.1392C137.074 24.9915 136.191 25.6392 135.117 26.0824C134.049 26.5199 132.85 26.7386 131.52 26.7386H127.02L127.634 23.0568H131.179C131.736 23.0568 132.225 22.9886 132.645 22.8523C133.066 22.7102 133.407 22.4886 133.668 22.1875C133.929 21.8807 134.1 21.4773 134.179 20.9773C134.259 20.4773 134.219 20.071 134.06 19.7585C133.901 19.4403 133.637 19.2074 133.267 19.0597C132.898 18.9062 132.441 18.8295 131.895 18.8295H130.225L127.941 32.5H123.202ZM134.759 24.4886L137.793 32.5H132.645L129.713 24.4886H134.759ZM148.783 32.5H143.669L152.328 15.0455H158.806L161.669 32.5H156.556L154.851 19.8523H154.715L148.783 32.5ZM148.988 25.6136H158.601L157.988 29.1591H148.374L148.988 25.6136ZM163.35 32.5L166.248 15.0455H173.782C175.078 15.0455 176.169 15.3011 177.055 15.8125C177.941 16.3239 178.578 17.0426 178.964 17.9688C179.35 18.8949 179.441 19.9773 179.237 21.2159C179.032 22.4773 178.578 23.5653 177.873 24.4801C177.174 25.3892 176.282 26.0909 175.197 26.5852C174.118 27.0739 172.907 27.3182 171.566 27.3182H167.066L167.68 23.6364H171.225C171.794 23.6364 172.294 23.5398 172.725 23.3466C173.157 23.1477 173.507 22.8693 173.774 22.5114C174.041 22.1477 174.214 21.7159 174.294 21.2159C174.373 20.7159 174.336 20.2898 174.183 19.9375C174.035 19.5795 173.779 19.3068 173.416 19.1193C173.058 18.9261 172.6 18.8295 172.044 18.8295H170.373L168.089 32.5H163.35ZM179.1 32.5L181.998 15.0455H189.532C190.828 15.0455 191.919 15.3011 192.805 15.8125C193.691 16.3239 194.328 17.0426 194.714 17.9688C195.1 18.8949 195.191 19.9773 194.987 21.2159C194.782 22.4773 194.328 23.5653 193.623 24.4801C192.924 25.3892 192.032 26.0909 190.947 26.5852C189.868 27.0739 188.657 27.3182 187.316 27.3182H182.816L183.43 23.6364H186.975C187.544 23.6364 188.044 23.5398 188.475 23.3466C188.907 23.1477 189.257 22.8693 189.524 22.5114C189.791 22.1477 189.964 21.7159 190.044 21.2159C190.123 20.7159 190.086 20.2898 189.933 19.9375C189.785 19.5795 189.529 19.3068 189.166 19.1193C188.808 18.9261 188.35 18.8295 187.794 18.8295H186.123L183.839 32.5H179.1Z" fill="#FFB703" />
  <path d="M41.6909 19.8843L34.3974 11.3864C34.1569 11.0991 33.8562 10.868 33.5167 10.7094C33.1772 10.5509 32.807 10.4687 32.4323 10.4688H6.125C5.44538 10.4688 4.7936 10.7387 4.31304 11.2193C3.83248 11.6999 3.5625 12.3516 3.5625 13.0312V30.9688C3.5625 31.6484 3.83248 32.3001 4.31304 32.7807C4.7936 33.2613 5.44538 33.5312 6.125 33.5312H8.84766C9.12992 34.6337 9.77105 35.6108 10.67 36.3085C11.5689 37.0063 12.6745 37.385 13.8125 37.385C14.9505 37.385 16.0561 37.0063 16.955 36.3085C17.8539 35.6108 18.4951 34.6337 18.7773 33.5312H26.7852C27.0674 34.6337 27.7086 35.6108 28.6075 36.3085C29.5064 37.0063 30.612 37.385 31.75 37.385C32.888 37.385 33.9936 37.0063 34.8925 36.3085C35.7914 35.6108 36.4326 34.6337 36.7148 33.5312H39.4375C40.1171 33.5312 40.7689 33.2613 41.2495 32.7807C41.73 32.3001 42 31.6484 42 30.9688V20.7188C42 20.4126 41.8903 20.1166 41.6909 19.8843ZM6.125 19.4375V13.0312H15.0938V19.4375H6.125ZM13.8125 34.8125C13.3057 34.8125 12.8103 34.6622 12.3889 34.3806C11.9675 34.0991 11.639 33.6989 11.4451 33.2306C11.2511 32.7624 11.2004 32.2472 11.2992 31.7501C11.3981 31.253 11.6422 30.7964 12.0005 30.438C12.3589 30.0797 12.8155 29.8356 13.3126 29.7367C13.8097 29.6379 14.3249 29.6886 14.7931 29.8826C15.2614 30.0765 15.6616 30.4049 15.9431 30.8264C16.2247 31.2478 16.375 31.7432 16.375 32.25C16.375 32.9296 16.105 33.5814 15.6245 34.062C15.1439 34.5425 14.4921 34.8125 13.8125 34.8125ZM26.625 19.4375H17.6562V13.0312H26.625V19.4375ZM31.75 34.8125C31.2432 34.8125 30.7478 34.6622 30.3264 34.3806C29.9049 34.0991 29.5765 33.6989 29.3826 33.2306C29.1886 32.7624 29.1379 32.2472 29.2367 31.7501C29.3356 31.253 29.5797 30.7964 29.938 30.438C30.2964 30.0797 30.753 29.8356 31.2501 29.7367C31.7472 29.6379 32.2624 29.6886 32.7306 29.8826C33.1989 30.0765 33.5991 30.4049 33.8806 30.8264C34.1622 31.2478 34.3125 31.7432 34.3125 32.25C34.3125 32.9296 34.0425 33.5814 33.562 34.062C33.0814 34.5425 32.4296 34.8125 31.75 34.8125ZM29.1875 19.4375V13.0312H32.4323L37.9304 19.4375H29.1875Z" fill="#FFB703" />
</svg>
